<?xml version="1.0" standalone="no"?>
<!DOCTYPE svg PUBLIC "-//W3C//DTD SVG 20010904//EN"
 "http://www.w3.org/TR/2001/REC-SVG-20010904/DTD/svg10.dtd">
<svg version="1.0" xmlns="http://www.w3.org/2000/svg"
 width="225.000000pt" height="225.000000pt" viewBox="0 0 225.000000 225.000000"
 preserveAspectRatio="xMidYMid meet">

<g transform="translate(0.000000,225.000000) scale(0.100000,-0.100000)"
fill="#000000" stroke="none">
<path d="M645 2186 c-353 -67 -612 -353 -641 -708 -7 -83 4 -138 40 -191 l24
-35 -24 -23 c-36 -34 -50 -91 -36 -144 8 -32 9 -52 1 -75 -14 -38 -7 -94 15
-142 16 -33 15 -37 -5 -83 -25 -56 -21 -118 11 -172 16 -27 20 -52 20 -122 0
-143 41 -243 135 -330 52 -48 105 -76 182 -96 85 -22 1431 -22 1516 0 77 20
130 48 182 96 94 87 135 187 135 330 0 70 4 95 20 122 32 54 36 116 11 172
-20 46 -21 51 -6 82 23 49 29 93 16 137 -7 28 -7 51 1 82 14 52 0 109 -36 143
l-24 23 24 35 c40 60 48 106 36 214 -21 178 -86 318 -207 447 -108 115 -224
185 -375 228 -58 16 -116 18 -505 20 -332 2 -457 0 -510 -10z m990 -99 c33
-10 98 -36 145 -59 120 -58 240 -178 298 -298 51 -103 72 -185 75 -282 2 -61
-2 -78 -20 -104 -38 -54 -75 -64 -225 -64 -141 0 -158 -5 -158 -45 0 -41 16
-45 185 -45 191 0 210 -6 210 -65 0 -32 -5 -42 -25 -52 -37 -19 -1953 -19
-1990 0 -20 10 -25 20 -25 52 0 32 5 42 25 52 19 10 175 13 696 13 507 0 673
3 682 12 7 7 12 21 12 33 0 12 -5 26 -12 33 -9 9 -168 12 -655 12 -708 0 -689
-2 -734 61 -21 29 -24 44 -23 109 7 318 262 599 589 649 33 5 247 8 475 7 354
-2 424 -5 475 -19z m519 -1127 c-1 -5 -2 -19 -2 -31 -1 -11 -15 -34 -31 -50
-38 -37 -82 -38 -149 -3 -68 35 -142 35 -209 0 -60 -33 -91 -33 -154 0 -69 35
-143 35 -209 0 -63 -33 -95 -33 -158 0 -40 21 -65 26 -117 26 -52 0 -77 -5
-117 -26 -63 -33 -95 -33 -158 0 -35 18 -64 25 -103 25 -39 0 -70 -7 -106 -25
-28 -14 -63 -26 -78 -26 -16 0 -50 12 -76 26 -36 18 -64 25 -104 25 -40 0 -69
-7 -105 -25 -60 -31 -106 -33 -141 -6 -25 20 -53 82 -44 97 8 12 2062 5 2061
-7z m-936 -175 c34 -18 62 -25 103 -25 41 0 69 7 103 25 59 31 90 31 158 0 71
-33 142 -33 208 0 27 14 63 25 80 25 37 0 96 -28 84 -40 -49 -45 -489 -348
-498 -343 -9 6 -211 153 -405 296 l-54 40 39 23 c53 32 120 32 182 -1z m-458
-220 c0 -17 8 -29 24 -36 32 -15 66 4 66 36 0 21 5 25 30 25 23 0 30 -5 30
-19 0 -43 24 -51 147 -51 l115 0 136 -100 c75 -55 146 -100 158 -100 12 0 84
45 160 100 l139 100 156 0 c87 0 165 3 175 7 15 6 16 -1 12 -68 -11 -164 -112
-280 -271 -309 -35 -7 -307 -10 -749 -8 -784 4 -743 -1 -837 84 -67 60 -103
135 -109 227 l-4 72 262 -3 c236 -3 264 -1 281 14 11 9 19 25 19 36 0 13 8 18
30 18 25 0 30 -4 30 -25z"/>
<path d="M669 1859 c-18 -34 3 -69 40 -69 45 0 66 44 35 74 -22 23 -61 20 -75
-5z"/>
<path d="M1222 1868 c-28 -28 -7 -78 33 -78 12 0 26 5 33 12 7 7 12 21 12 33
0 12 -5 26 -12 33 -7 7 -21 12 -33 12 -12 0 -26 -5 -33 -12z"/>
<path d="M952 1788 c-22 -22 -14 -67 13 -80 46 -21 86 40 49 76 -18 19 -45 21
-62 4z"/>
<path d="M1497 1782 c-22 -24 -21 -45 2 -66 41 -37 97 14 66 60 -18 29 -46 31
-68 6z"/>
<path d="M282 1614 c-39 -27 -23 -84 24 -84 46 0 59 60 19 86 -18 12 -24 11
-43 -2z"/>
<path d="M834 1620 c-46 -18 -28 -90 22 -90 27 0 51 37 41 64 -9 22 -39 35
-63 26z"/>
<path d="M1368 1611 c-19 -16 -21 -23 -13 -47 13 -38 56 -45 78 -13 33 46 -21
95 -65 60z"/>
<path d="M1922 1614 c-39 -27 -23 -84 24 -84 46 0 59 60 19 86 -18 12 -24 11
-43 -2z"/>
<path d="M538 1514 c-16 -34 0 -58 40 -62 42 -4 61 28 37 64 -21 33 -62 32
-77 -2z"/>
<path d="M1092 1528 c-28 -28 -7 -78 33 -78 12 0 26 5 33 12 7 7 12 21 12 33
0 12 -5 26 -12 33 -7 7 -21 12 -33 12 -12 0 -26 -5 -33 -12z"/>
<path d="M1635 1516 c-22 -34 -6 -66 34 -66 39 0 57 24 45 58 -13 38 -57 42
-79 8z"/>
<path d="M1595 1256 c-22 -33 -5 -66 33 -66 33 0 52 16 52 45 0 48 -58 62 -85
21z"/>
</g>
</svg>
